<svg xmlns="http://www.w3.org/2000/svg" width="254" height="264" viewBox="0 0 254 264"><defs><linearGradient id="nps4b" x1="284.77" x2="273.42" y1="135.06" y2="-295.11" gradientUnits="userSpaceOnUse"><stop offset="0" stop-color="#fff792"/><stop offset="1" stop-color="#ff546b"/></linearGradient><linearGradient id="nps4c" x1="286.28" x2="348.99" y1="245.44" y2="245.44" gradientUnits="userSpaceOnUse"><stop offset="0" stop-color="#f25995"/><stop offset="1" stop-color="#591c89"/></linearGradient><linearGradient id="nps4d" x1="279.09" x2="316.73" y1="207.36" y2="226.27" gradientUnits="userSpaceOnUse"><stop offset="0" stop-color="#fff792"/><stop offset="1" stop-color="#ff546b"/></linearGradient><linearGradient id="nps4e" x1="316.43" x2="329.86" y1="211.66" y2="211.66" gradientUnits="userSpaceOnUse"><stop offset="0" stop-color="#e5e6ed"/><stop offset="1" stop-color="#62b7de"/></linearGradient><linearGradient id="nps4f" x1="305.32" x2="325.37" y1="176.76" y2="176.76" gradientUnits="userSpaceOnUse"><stop offset="0" stop-color="#de687a"/><stop offset="1" stop-color="#ff9c99"/></linearGradient><linearGradient id="nps4g" x1="332.08" x2="290.35" y1="161.36" y2="146.79" gradientUnits="userSpaceOnUse"><stop offset="0" stop-color="#0065af"/><stop offset=".48" stop-color="#12297f"/><stop offset="1" stop-color="#211b59"/></linearGradient><linearGradient id="nps4h" x1="298.11" x2="292.71" y1="168.92" y2="154.52" gradientUnits="userSpaceOnUse"><stop offset="0" stop-color="#f3ac45"/><stop offset="1" stop-color="#e63a4c"/></linearGradient><linearGradient id="nps4i" x1="260.47" x2="273.87" y1="183.97" y2="183.97" gradientUnits="userSpaceOnUse"><stop offset="0" stop-color="#e5e6ed"/><stop offset="1" stop-color="#62b7de"/></linearGradient><linearGradient id="nps4j" x1="264.37" x2="253.3" y1="162.83" y2="147.47" gradientUnits="userSpaceOnUse"><stop offset="0" stop-color="#de687a"/><stop offset="1" stop-color="#ff9c99"/></linearGradient><linearGradient id="nps4k" x1="283.26" x2="297.73" y1="129.28" y2="167.52" gradientUnits="userSpaceOnUse"><stop offset="0" stop-color="#0065af"/><stop offset=".48" stop-color="#12297f"/><stop offset="1" stop-color="#211b59"/></linearGradient><linearGradient id="nps4l" x1="259.01" x2="299.2" y1="137.19" y2="135.54" gradientUnits="userSpaceOnUse"><stop offset="0" stop-color="#f3ac45"/><stop offset="1" stop-color="#e63a4c"/></linearGradient><linearGradient id="nps4m" x1="259.59" x2="264.48" y1="75.75" y2="75.75" gradientUnits="userSpaceOnUse"><stop offset="0" stop-color="#de687a"/><stop offset="1" stop-color="#ff9c99"/></linearGradient><linearGradient id="nps4n" x1="270.44" x2="259.21" y1="96.36" y2="100.34" gradientUnits="userSpaceOnUse"><stop offset="0" stop-color="#de687a"/><stop offset="1" stop-color="#ff9c99"/></linearGradient><linearGradient id="nps4o" x1="272.95" x2="295.85" y1="98.07" y2="122.01" gradientUnits="userSpaceOnUse"><stop offset="0" stop-color="#00b9eb"/><stop offset=".48" stop-color="#004f9b"/><stop offset="1" stop-color="#0d2570"/></linearGradient><linearGradient id="nps4p" x1="253.87" x2="279.65" y1="77.05" y2="77.05" gradientUnits="userSpaceOnUse"><stop offset="0" stop-color="#ffd31a"/><stop offset="1" stop-color="#f80"/></linearGradient><linearGradient id="nps4q" x1="286.66" x2="321.25" y1="39.87" y2="121.85" gradientUnits="userSpaceOnUse"><stop offset="0" stop-color="#ffd31a"/><stop offset="1" stop-color="#f80"/></linearGradient><linearGradient id="nps4r" x1="285.07" x2="302.29" y1="41.91" y2="67.92" gradientUnits="userSpaceOnUse"><stop offset="0" stop-color="#ffd31a"/><stop offset="1" stop-color="#f80"/></linearGradient><linearGradient id="nps4s" x1="271.49" x2="322.76" y1="46" y2="146.07" gradientUnits="userSpaceOnUse"><stop offset="0" stop-color="#ffd31a"/><stop offset="1" stop-color="#f80"/></linearGradient><linearGradient id="nps4t" x1="267.21" x2="301.76" y1="65.44" y2="65.44" gradientUnits="userSpaceOnUse"><stop offset="0" stop-color="#ffd31a"/><stop offset="1" stop-color="#f80"/></linearGradient><linearGradient id="nps4u" x1="209.97" x2="248.95" y1="39.69" y2="85.48" gradientUnits="userSpaceOnUse"><stop offset="0" stop-color="#ffd31a"/><stop offset="1" stop-color="#f80"/></linearGradient><linearGradient id="nps4v" x1="244.03" x2="272.97" y1="65.91" y2="122.09" gradientUnits="userSpaceOnUse"><stop offset="0" stop-color="#ffd31a"/><stop offset="1" stop-color="#f80"/></linearGradient><linearGradient id="nps4w" x1="269.67" x2="306.17" y1="38.43" y2="95.26" gradientUnits="userSpaceOnUse"><stop offset="0" stop-color="#ffd31a"/><stop offset="1" stop-color="#f80"/></linearGradient><linearGradient id="nps4x" x1="266.59" x2="284.89" y1="51.14" y2="51.14" gradientUnits="userSpaceOnUse"><stop offset="0" stop-color="#ffd31a"/><stop offset="1" stop-color="#f80"/></linearGradient><linearGradient id="nps4y" x1="282.54" x2="301.47" y1="79.48" y2="79.48" gradientUnits="userSpaceOnUse"><stop offset="0" stop-color="#ffd31a"/><stop offset="1" stop-color="#f80"/></linearGradient><linearGradient id="nps4z" x1="272.34" x2="293.53" y1="65.72" y2="79.42" gradientUnits="userSpaceOnUse"><stop offset="0" stop-color="#ffd31a"/><stop offset="1" stop-color="#f80"/></linearGradient><linearGradient id="nps4A" x1="282.49" x2="296.29" y1="57.42" y2="57.42" gradientUnits="userSpaceOnUse"><stop offset="0" stop-color="#eb984c"/><stop offset="1" stop-color="#d8472c"/></linearGradient><linearGradient id="nps4B" x1="263.09" x2="267.83" y1="77.27" y2="77.27" gradientUnits="userSpaceOnUse"><stop offset="0" stop-color="#de687a"/><stop offset="1" stop-color="#ff9c99"/></linearGradient><linearGradient id="nps4C" x1="262.73" x2="265.44" y1="73.38" y2="73.38" gradientUnits="userSpaceOnUse"><stop offset="0" stop-color="#de687a"/><stop offset="1" stop-color="#ff9c99"/></linearGradient><linearGradient id="nps4D" x1="261.76" x2="264.47" y1="73.85" y2="73.85" gradientUnits="userSpaceOnUse"><stop offset="0" stop-color="#de687a"/><stop offset="1" stop-color="#ff9c99"/></linearGradient><linearGradient id="nps4E" x1="260.73" x2="263.44" y1="74.36" y2="74.36" gradientUnits="userSpaceOnUse"><stop offset="0" stop-color="#de687a"/><stop offset="1" stop-color="#ff9c99"/></linearGradient><linearGradient id="nps4F" x1="259.87" x2="262.58" y1="74.94" y2="74.94" gradientUnits="userSpaceOnUse"><stop offset="0" stop-color="#de687a"/><stop offset="1" stop-color="#ff9c99"/></linearGradient><linearGradient id="nps4G" x1="283.88" x2="309.18" y1="116.07" y2="116.07" gradientUnits="userSpaceOnUse"><stop offset="0" stop-color="#00b9eb"/><stop offset=".48" stop-color="#004f9b"/><stop offset="1" stop-color="#0d2570"/></linearGradient><linearGradient id="nps4H" x1="295.7" x2="307.53" y1="124.37" y2="124.37" gradientUnits="userSpaceOnUse"><stop offset="0" stop-color="#f3ac45"/><stop offset="1" stop-color="#e63a4c"/></linearGradient><linearGradient id="nps4I" x1="292.95" x2="300.73" y1="97.37" y2="97.37" gradientUnits="userSpaceOnUse"><stop offset="0" stop-color="#de687a"/><stop offset="1" stop-color="#ff9c99"/></linearGradient><linearGradient id="nps4J" x1="288.22" x2="301.36" y1="92.01" y2="105.11" gradientUnits="userSpaceOnUse"><stop offset="0" stop-color="#2a335d"/><stop offset="1" stop-color="#e1758f"/></linearGradient><linearGradient id="nps4K" x1="303.07" x2="293.42" y1="95.53" y2="91.26" gradientUnits="userSpaceOnUse"><stop offset="0" stop-color="#de687a"/><stop offset="1" stop-color="#ff9c99"/></linearGradient><linearGradient id="nps4L" x1="295.22" x2="299.99" y1="87.61" y2="94.28" gradientUnits="userSpaceOnUse"><stop offset="0" stop-color="#2a335d"/><stop offset="1" stop-color="#e1758f"/></linearGradient><linearGradient id="nps4M" x1="293.5" x2="297.88" y1="93.2" y2="90.26" gradientUnits="userSpaceOnUse"><stop offset="0" stop-color="#de687a"/><stop offset="1" stop-color="#ff9c99"/></linearGradient><linearGradient id="nps4N" x1="297.3" x2="288.13" y1="88.62" y2="86.23" gradientUnits="userSpaceOnUse"><stop offset="0" stop-color="#2a335d"/><stop offset="1" stop-color="#e1758f"/></linearGradient><linearGradient id="nps4O" x1="318.38" x2="307.02" y1="99" y2="112.02" gradientUnits="userSpaceOnUse"><stop offset="0" stop-color="#00b9eb"/><stop offset=".48" stop-color="#004f9b"/><stop offset="1" stop-color="#0d2570"/></linearGradient><linearGradient id="nps4P" x1="330.03" x2="318.74" y1="113.5" y2="118.3" gradientUnits="userSpaceOnUse"><stop offset="0" stop-color="#de687a"/><stop offset="1" stop-color="#ff9c99"/></linearGradient><linearGradient id="nps4Q" x1="307.67" x2="324.35" y1="104.08" y2="120.72" gradientUnits="userSpaceOnUse"><stop offset="0" stop-color="#2a335d"/><stop offset="1" stop-color="#e1758f"/></linearGradient><linearGradient id="nps4R" x1="304.52" x2="315.88" y1="224.2" y2="224.2" gradientUnits="userSpaceOnUse"><stop offset="0" stop-color="#00b9eb"/><stop offset=".48" stop-color="#004f9b"/><stop offset="1" stop-color="#0d2570"/></linearGradient><linearGradient id="nps4S" x1="250" x2="265" y1="176.03" y2="176.03" gradientUnits="userSpaceOnUse"><stop offset="0" stop-color="#ffd31a"/><stop offset="1" stop-color="#f80"/></linearGradient><linearGradient id="nps4T" x1="252.73" x2="274.41" y1="167.07" y2="167.07" gradientUnits="userSpaceOnUse"><stop offset="0" stop-color="#e5e6ed"/><stop offset="1" stop-color="#62b7de"/></linearGradient><linearGradient id="nps4U" x1="303.15" x2="317.47" y1="200.24" y2="200.24" gradientUnits="userSpaceOnUse"><stop offset="0" stop-color="#ffd31a"/><stop offset="1" stop-color="#f80"/></linearGradient><linearGradient id="nps4V" x1="312.18" x2="330.11" y1="192.78" y2="192.78" gradientUnits="userSpaceOnUse"><stop offset="0" stop-color="#e5e6ed"/><stop offset="1" stop-color="#62b7de"/></linearGradient><linearGradient id="nps4W" x1="224.58" x2="287.29" y1="229.98" y2="229.98" gradientUnits="userSpaceOnUse"><stop offset="0" stop-color="#f25995"/><stop offset="1" stop-color="#591c89"/></linearGradient><linearGradient id="nps4X" x1="217.45" x2="255.09" y1="176.49" y2="195.4" gradientUnits="userSpaceOnUse"><stop offset="0" stop-color="#fff792"/><stop offset="1" stop-color="#ff546b"/></linearGradient><linearGradient id="nps4Y" x1="250.32" x2="265.67" y1="193.21" y2="193.21" gradientUnits="userSpaceOnUse"><stop offset="0" stop-color="#00b9eb"/><stop offset=".48" stop-color="#004f9b"/><stop offset="1" stop-color="#0d2570"/></linearGradient><linearGradient id="nps4Z" x1="201.94" x2="215.69" y1="135.15" y2="135.15" gradientUnits="userSpaceOnUse"><stop offset="0" stop-color="#f25995"/><stop offset="1" stop-color="#591c89"/></linearGradient><linearGradient id="nps4aa" x1="371.51" x2="381.16" y1="144.03" y2="144.03" gradientUnits="userSpaceOnUse"><stop offset="0" stop-color="#00b9eb"/><stop offset=".48" stop-color="#004f9b"/><stop offset="1" stop-color="#0d2570"/></linearGradient><linearGradient id="nps4ab" x1="339.28" x2="347.25" y1="109.61" y2="109.61" gradientUnits="userSpaceOnUse"><stop offset="0" stop-color="#1beb73"/><stop offset="1" stop-color="#00b9d0"/></linearGradient><linearGradient id="nps4ac" x1="339.28" x2="347.25" y1="145.56" y2="145.56" gradientUnits="userSpaceOnUse"><stop offset="0" stop-color="#db8f3b"/><stop offset="1" stop-color="#e25af8"/></linearGradient><linearGradient id="nps4ad" x1="341.49" x2="375.31" y1="172.38" y2="172.38" gradientUnits="userSpaceOnUse"><stop offset="0" stop-color="#fff792"/><stop offset="1" stop-color="#ff546b"/></linearGradient><linearGradient id="nps4ae" x1="386" x2="390.56" y1="107.22" y2="107.22" gradientUnits="userSpaceOnUse"><stop offset="0" stop-color="#cb457d"/><stop offset="1" stop-color="#7444b6"/></linearGradient><linearGradient id="nps4af" x1="339.22" x2="359.35" y1="68.47" y2="68.47" gradientUnits="userSpaceOnUse"><stop offset="0" stop-color="#fff792"/><stop offset="1" stop-color="#ff546b"/></linearGradient><linearGradient id="nps4ag" x1="230.36" x2="238.67" y1="60.84" y2="60.84" gradientUnits="userSpaceOnUse"><stop offset="0" stop-color="#cb457d"/><stop offset="1" stop-color="#7444b6"/></linearGradient><linearGradient id="nps4ah" x1="295.09" x2="301.89" y1="98.33" y2="112.01" gradientUnits="userSpaceOnUse"><stop offset="0" stop-color="#f3ac45"/><stop offset="1" stop-color="#e63a4c"/></linearGradient><linearGradient id="nps4ai" x1="286.19" x2="254.71" y1="148.28" y2="147.24" gradientUnits="userSpaceOnUse"><stop offset="0" stop-color="#2a335d"/><stop offset="1" stop-color="#e1758f"/></linearGradient><linearGradient id="nps4aj" x1="329.31" x2="276.31" y1="169.07" y2="167.32" gradientUnits="userSpaceOnUse"><stop offset="0" stop-color="#2a335d"/><stop offset="1" stop-color="#e1758f"/></linearGradient><linearGradient id="nps4ak" x1="262.69" x2="284.63" y1="105.57" y2="113.99" gradientUnits="userSpaceOnUse"><stop offset="0" stop-color="#2a335d"/><stop offset="1" stop-color="#e1758f"/></linearGradient><linearGradient id="nps4al" x1="257.79" x2="276.35" y1="105.4" y2="105.4" gradientUnits="userSpaceOnUse"><stop offset="0" stop-color="#d45689"/><stop offset="1" stop-color="#005dc6"/></linearGradient><linearGradient id="nps4am" x1="330.62" x2="348.87" y1="244.48" y2="244.48" gradientUnits="userSpaceOnUse"><stop offset="0" stop-color="#d45689"/><stop offset="1" stop-color="#005dc6"/></linearGradient><linearGradient id="nps4an" x1="222.02" x2="227.15" y1="23.5" y2="23.5" gradientUnits="userSpaceOnUse"><stop offset="0" stop-color="#fff792"/><stop offset="1" stop-color="#ff546b"/></linearGradient><linearGradient id="nps4ao" x1="192.15" x2="247.74" y1="64.74" y2="117.49" gradientUnits="userSpaceOnUse"><stop offset="0" stop-color="#00b9eb"/><stop offset=".48" stop-color="#004f9b"/><stop offset="1" stop-color="#0d2570"/></linearGradient><linearGradient id="nps4ap" x1="395.22" x2="402.19" y1="79.25" y2="79.25" gradientUnits="userSpaceOnUse"><stop offset="0" stop-color="#fff792"/><stop offset="1" stop-color="#ff546b"/></linearGradient><clipPath id="nps4a"><path d="M25 264c-13.807 0-25-11.193-25-25V25C0 11.193 11.193 0 25 0h204c13.807 0 25 11.193 25 25v214c0 13.807-11.193 25-25 25z"/></clipPath></defs><g><g><g opacity=".8"><path fill="#fff" d="M25 264c-13.807 0-25-11.193-25-25V25C0 11.193 11.193 0 25 0h204c13.807 0 25 11.193 25 25v214c0 13.807-11.193 25-25 25z"/></g><g clip-path="url(#nps4a)" opacity=".34"><g opacity=".26"><path fill="url(#nps4b)" d="M156.624 195.792l1.017 30.922H94.935L130.63 0l51.415.078 37.285 195.791"/></g><g opacity=".34"><g opacity=".34" transform="rotate(180 126.285 245.435)"><path fill="url(#nps4c)" d="M94.935 264.163v-37.449h62.706v37.45z"/></g><g opacity=".34"><path fill="url(#nps4d)" d="M94.895 226.714c0-1.261 14.055-2.284 31.393-2.284s31.393 1.023 31.393 2.284c0 1.262-14.055 2.284-31.393 2.284s-31.393-1.022-31.393-2.284z"/></g><g opacity=".34"><path fill="url(#nps4e)" d="M129.458 221.5h2.624s3.366-8.182 7.601-19.667h-13.15c-.721 5.883-.19 12.609 2.925 19.668z"/></g><g opacity=".34"><path fill="url(#nps4f)" d="M131.276 186.895h13.707c2.246-6.615 4.463-13.567 6.345-20.26l-18.479.02c.328 4.31 1.082 8.97 2.421 13.937 0 0-1.924 2.326-3.994 6.303z"/></g><g opacity=".34"><path fill="url(#nps4g)" d="M133.059 154.123v-.006c1.552-13.733 6.99-21.654 6.99-21.654h15.56c2.408 5.834-.118 19.37-4.28 34.172l-18.48.019-2.218.002z"/></g><g opacity=".34"><path fill="url(#nps4h)" d="M147.34 152.76l-2.357 13.896 6.346-.021 3.239-12.574z"/></g><g opacity=".34"><path fill="url(#nps4i)" d="M179.619 190.532h3.996s4.152-5.629 8.563-13.031c-3.631.028-9.272-.036-13.289-.094-.255 3.759-.074 8.106.73 13.125z"/></g><g opacity=".34"><path fill="url(#nps4j)" d="M168.896 156.758c14.338.542 22.528-1.91 23.821-2.333-.787.285-4.018 1.609-7.169 5.165l15.31.03c2.126-6.355 2.553-12.004-.74-14.95l-22.135-6.057z"/></g><g opacity=".34"><path fill="url(#nps4k)" d="M150.742 154.717c6.4 1.163 12.113 1.762 17.11 1.996.351.018.7.032 1.044.045l8.296-16.567.792-1.578-7.013-1.92-14.536-3.979-.793-.217h-15.73c.646 0-16.5 17.257 10.83 22.22z"/></g><g opacity=".34"><path fill="url(#nps4l)" d="M154.569 133.578l22.623 6.613.792-1.578-7.013-1.92-14.536-3.979z"/></g><g opacity=".34"><g opacity=".34"><path fill="url(#nps4m)" d="M182.296 78.784s2.709-3 1.938-4.936c-.771-1.937-3.851-1.968-3.851-1.968l-.898 7.741z"/></g><g opacity=".34"><path fill="url(#nps4n)" d="M177.322 99.096c-1.969 2.985-5.281 3.93-8.767 3.889 0 0-.806 8.172 2.335 13.134 3.013-.15 5.693-.771 7.353-1.915 20.51-14.135 4.064-35.414 4.064-35.414l-2.8.816s3.482 10.896-2.185 19.49z"/></g><g opacity=".34"><path fill="url(#nps4o)" d="M157.548 113.836c3.682 1.69 8.876 2.505 13.341 2.283h.001c-3.14-4.962-2.335-13.134-2.335-13.134-6.55-.077-15.544-4.099-15.544-4.099-3.98 5.415 4.537 14.95 4.537 14.95z"/></g><g opacity=".34"><g opacity=".34"><g opacity=".34" transform="rotate(119.011 183.365 77.05)"><path fill="url(#nps4p)" d="M180.207 65.156l5.47.206.847 23.575-5.469-.206z"/></g><g opacity=".34"><path fill="url(#nps4q)" d="M149.867 48.858l5.73 2.914c.976-2.217 1.369-3.687.95-3.9l-4.653-2.365z"/></g><g opacity=".34"><path fill="url(#nps4r)" d="M137.484 69.33l4.653 2.367c.856.435 4.775-4.546 8.754-11.125 2.032-3.36 3.687-6.486 4.705-8.8l-5.729-2.914z"/></g><g opacity=".34"><path fill="url(#nps4s)" d="M176.676 66.854c-.278-5.32-4.248-10.907-10.75-14.213l-9.38-4.769c.42.213.027 1.683-.95 3.9l8.043 4.09c5.579 2.836 10.017 6.701 13.037 10.992z"/></g><g opacity=".34"><path fill="url(#nps4t)" d="M142.137 71.697l9.38 4.769c9.089 4.622 19.683 3.035 23.663-3.544 1.133-1.874 1.607-3.95 1.496-6.068-3.02-4.29-7.458-8.156-13.037-10.993l-8.043-4.09c-1.018 2.315-2.673 5.441-4.705 8.801-3.98 6.58-7.898 11.56-8.754 11.125z"/></g><g opacity=".34"><path fill="#fa9d00" d="M200.504 78.03c-.035-.018-.079-.018-.13-.002l.15.014a.145.145 0 0 0-.02-.012z"/></g><g opacity=".34"><path fill="#fa9d00" d="M193.317 89.913a.121.121 0 0 0 .02.009l-.092-.111c.012.05.036.084.072.102z"/></g><g opacity=".34"><path fill="url(#nps4u)" d="M193.338 89.921l.005.002c.484.117 2.409-2.332 4.355-5.55 1.947-3.22 3.193-6.014 2.829-6.327l-.004-.004-.15-.014-1.453-.142c-.28 1.064-1.35 3.249-2.817 5.675-1.464 2.42-2.915 4.403-3.752 5.19l.894 1.06z"/></g><g opacity=".34"><path fill="#fa9d00" d="M200.523 78.042l.004.003.001-.002z"/></g><g opacity=".34"><path fill="url(#nps4v)" d="M191.807 88.105l.544.646c.837-.787 2.288-2.77 3.752-5.19 1.467-2.427 2.536-4.612 2.817-5.675l-.876-.085-8.872-.864-2.833 4.683z"/></g><g opacity=".34"><path fill="#fa9d00" d="M193.341 89.925l.002-.003h-.005z"/></g><g opacity=".34"><path fill="url(#nps4w)" d="M158.186 48.706l.851.432c.201-.285.421-.564.66-.834 3.563-4.015 10-4.621 14.379-1.356a9.607 9.607 0 0 1 2.443 2.646c-.63-1.358-1.62-2.599-2.955-3.595-4.378-3.265-10.815-2.659-14.377 1.356a9.51 9.51 0 0 0-1.001 1.35z"/></g><g opacity=".34"><path fill="url(#nps4x)" d="M171.353 48.492a6.195 6.195 0 0 1 2.017 2.53 5.695 5.695 0 0 1 .08 4.297l.664.495 2.163 1.614a8.682 8.682 0 0 0 .242-7.834 9.609 9.609 0 0 0-2.443-2.646c-4.379-3.265-10.816-2.659-14.378 1.356-.24.27-.46.549-.66.834l2.213 1.126c.187-.305.405-.6.654-.881 2.34-2.639 6.57-3.037 9.448-.891z"/></g><g opacity=".34"><path fill="url(#nps4y)" d="M149.416 85.924c4.606 1.445 9.56-.297 12.01-3.943l-.971-.304c-2.246 2.629-6.139 3.8-9.78 2.657-4.596-1.442-7.048-6.029-5.474-10.244.088-.235.186-.464.294-.686l-1.719-.874c-.282.47-.523.969-.72 1.493-1.828 4.897 1.02 10.225 6.36 11.9z"/></g><g opacity=".34"><path fill="url(#nps4z)" d="M150.676 84.334c3.64 1.143 7.533-.028 9.779-2.657l-2.478-.778c-1.718 1.977-4.668 2.85-7.426 1.985-3.51-1.101-5.38-4.602-4.18-7.82.128-.342.286-.668.47-.975l-1.346-.685c-.108.222-.206.45-.294.686-1.574 4.215.878 8.802 5.475 10.244z"/></g><g opacity=".34" transform="rotate(-60.989 144.68 57.415)"><path fill="url(#nps4A)" d="M144.619 55.677c7.683.29 13.94 1.302 13.974 2.261.034.96-6.166 1.503-13.85 1.214-7.683-.29-13.94-1.302-13.974-2.261-.034-.96 6.166-1.503 13.85-1.214z"/></g></g><g opacity=".34"><path fill="#fff" d="M155.046 62.913l2.64 2.597a.26.26 0 0 1 .043.323l-1.878 3.104c-.142.235.127.5.392.386l3.51-1.5a.321.321 0 0 1 .348.062l2.64 2.597c.2.196.557.044.521-.222l-.471-3.524a.273.273 0 0 1 .172-.285l3.51-1.5c.265-.113.217-.471-.07-.522l-3.8-.678a.288.288 0 0 1-.243-.239l-.471-3.523c-.036-.266-.422-.335-.564-.1l-1.878 3.104a.312.312 0 0 1-.322.137l-3.8-.678c-.288-.05-.479.265-.28.461z"/></g></g><g opacity=".34"><path fill="url(#nps4B)" d="M179.485 79.621l-3.374-4.647s.917-.343 1.149.587c0 0 2.914 1.068 3.59 3.654z"/></g><g opacity=".34"><g opacity=".34"><path fill="url(#nps4C)" d="M180 71.35l-1.585 3.68s.477.844 1.012.412l1.7-3.826s-.656-.74-1.128-.267z"/></g><g opacity=".34"><path fill="url(#nps4D)" d="M180.965 71.82l-1.583 3.68s.477.844 1.012.412l1.7-3.827s-.656-.74-1.129-.266z"/></g><g opacity=".34"><path fill="url(#nps4E)" d="M181.995 72.331l-1.585 3.68s.478.845 1.012.413l1.7-3.827s-.655-.74-1.127-.266z"/></g><g opacity=".34"><path fill="url(#nps4F)" d="M182.87 72.916l-1.584 3.68s.477.845 1.012.412l1.7-3.826s-.656-.74-1.128-.266z"/></g></g></g><g opacity=".34"><path fill="url(#nps4G)" d="M136.502 116.035c2.05 6.771 4.964 14.52 3.861 16.368a109.367 109.367 0 0 0 7.832.975c4.13.346 8.443.368 8.91-.975.92-2.643 3.741-22.211 2.638-27.272-1.105-5.06-7.425-8.632-16.407-5.243 0 0-7.157 1.554-8.506 6.39-.512 1.835.418 5.614 1.672 9.757z"/></g><g opacity=".34"><path fill="url(#nps4H)" d="M136.502 116.035c2.05 6.771 4.964 14.52 3.861 16.368 0 0 1.595.266 3.801.546l4.03.429c0-.031-.003-4.342-1.887-9.642-1.892-5.32-9.944-8.37-9.944-8.37z"/></g><g opacity=".34"><g opacity=".34"><path fill="url(#nps4I)" d="M150.915 105.13s-2.003-8.076-1.126-11.944l.014-.056-2.086-3.516s-3.827 3.1-4.585 12.089c0 0 4.042 3.428 7.783 3.428z"/></g><g opacity=".09"><path fill="url(#nps4J)" d="M150.915 105.13s-2.003-8.076-1.126-11.944l-2.216-1.521c-2.929 6.291 3.342 13.466 3.342 13.466z"/></g><g opacity=".34"><path fill="url(#nps4K)" d="M152.203 90.752l.31 4.32s-4.668.796-4.897-1.129c-.229-1.924.25-6.195.25-6.195s4.026-1.315 4.337 3.004z"/></g><g opacity=".34"><path fill="url(#nps4L)" d="M147.624 90.925l.51-.019s0-2.502.86-2.687c.859-.185 0-1.112-.708-1.112-.707 0-2.274.463-2.223 2.224.05 1.76-.002 2.352-.002 2.352l1.493-1.61z"/></g><g opacity=".34"><path fill="url(#nps4M)" d="M147.716 89.613s-.845-.467-1.097.552c-.253 1.02.953 1.499.953 1.499z"/></g><g opacity=".34"><path fill="url(#nps4N)" d="M149.2 87.56s.198 1.632 2.725 1.169c2.527-.464 1.769-1.993 1.769-1.993s-.556.371-1.011.14c0 0 .505-.279.303-.835 0 0-.505.603-1.466.371-.96-.232-5.046-.022-2.32 1.147z"/></g></g><g opacity=".34"><path fill="url(#nps4O)" d="M128.326 105.367c3.278 3.559 1.522 11.125 1.496 11.233 2.094-.842 4.337-1.372 6.542-1.234 0 0 4.216-3.147 2.662-13.712 0 0-5.022 1.17-10.703 3.712z"/></g><g opacity=".34"><path fill="url(#nps4P)" d="M136.91 132.944s2.133 1.439 3.367 1.541c1.234.103 1.457-3.598.673-4.422-.785-.822-4.04 0-4.04 0a.668.668 0 0 0-.216.076l-.007-.076s-11.553-7.198-16.936-6.786c0 0 2.97-2.923 7.059-5.221a26.018 26.018 0 0 1 3.012-1.456c.025-.106 1.73-7.45-1.353-11.07l-.144-.163h-.002c-2.074.93-4.233 2.04-6.27 3.345-4.466 2.863-8.332 6.653-9.369 11.479-2.803 13.06 24.227 12.753 24.227 12.753z"/></g><g opacity=".11"><path fill="url(#nps4Q)" d="M126.81 118.056a26.026 26.026 0 0 1 3.012-1.456c.025-.106 1.73-7.45-1.353-11.07l-.144-.163s2.037 7.734-1.515 12.689z"/></g><g opacity=".34"><path fill="url(#nps4R)" d="M132.05 221.567s2.138 3.708 5.237 3.443c3.1-.265 2.459 1.457.535 1.722-1.924.265-7.055-.662-8.124 0-1.069.662-2.672-1.987-.641-5.165z"/></g><g opacity=".34"><path fill="url(#nps4S)" d="M178.89 177.407c4.016.058 9.657.122 13.288.094a149.78 149.78 0 0 0 1.716-2.95h-14.713a41.95 41.95 0 0 0-.292 2.856z"/></g><g opacity=".34"><path fill="url(#nps4T)" d="M179.18 174.55h14.714c2.71-4.783 5.327-10.048 6.955-14.903a.04.04 0 0 0 .005-.016l.004-.012-15.31-.03c-2.721 3.07-5.383 7.802-6.367 14.962z"/></g><g opacity=".34"><path fill="url(#nps4U)" d="M126.533 201.833h13.15c.381-1.034.77-2.094 1.163-3.179h-13.793a39.792 39.792 0 0 0-.52 3.18z"/></g><g opacity=".34"><path fill="url(#nps4V)" d="M127.053 198.654h13.793a608.137 608.137 0 0 0 4.137-11.759h-13.707c-1.589 3.052-3.263 7.072-4.223 11.76z"/></g><g opacity=".34" transform="rotate(180 187.975 229.975)"><path fill="url(#nps4W)" d="M156.624 264.163v-68.371h62.707v68.371z"/></g><g opacity=".34"><path fill="url(#nps4X)" d="M156.546 195.843c0-1.261 14.055-2.284 31.392-2.284 17.338 0 31.393 1.023 31.393 2.284 0 1.262-14.055 2.284-31.393 2.284-17.337 0-31.392-1.022-31.392-2.284z"/></g><g opacity=".34"><path fill="url(#nps4Y)" d="M183.621 190.576s2.89 3.708 7.078 3.443c4.189-.265 3.322 1.457.722 1.722-2.6.265-9.533-.662-10.978 0-1.444.662-3.61-1.987-.866-5.165z"/></g></g><g opacity=".34"><path fill="url(#nps4Z)" d="M236.348 139.597l5.632-8.886h-5.632l-8.12 8.045z"/></g><g opacity=".34"><path fill="url(#nps4aa)" d="M72.578 145.75l-7.268-5.895-2.376 2.948 6.15 5.382z"/></g><g opacity=".34"><path fill="url(#nps4ab)" d="M99.135 112.942l5.591-6.664-5.59.128-2.377 6.28z"/></g><g opacity=".34"><path fill="url(#nps4ac)" d="M104.726 147.032H96.76v-2.948z"/></g><g opacity=".34"><path fill="url(#nps4ad)" d="M71.284 180.125l19.848-15.507h-9.924l-23.902 9.74z"/></g><g opacity=".34"><path fill="url(#nps4ae)" d="M57.518 110.516l-4.008-3.953-.182-2.64 4.56 4.499z"/></g><g opacity=".34"><path fill="url(#nps4af)" d="M91.029 75.264l13.698-15.25-15.236 2.178-4.892 14.738z"/></g><g opacity=".34"><path fill="url(#nps4ag)" d="M213.569 61.768l-4.067-6.993-4.237 2.642 8.304 9.478z"/></g><g opacity=".34"><path fill="url(#nps4ah)" d="M150.914 105.131s-5.568-1.915-7.578-5.243c0 0-1.279-.12-1.929 2.136 0 0 5.475 4.48 9.507 3.107z"/></g><g opacity=".1"><path fill="url(#nps4ai)" d="M177.984 138.613l-9.088 18.145h4.544l5.74-17.818z"/></g><g opacity=".14"><path fill="url(#nps4aj)" d="M151.328 166.635l-18.478.019.3 3.057h17.296z"/></g><g opacity=".11"><path fill="url(#nps4ak)" d="M168.555 102.985s1.779 10.901 5.484 12.776l-3.149.358s-3.01-4.108-2.335-13.134z"/></g><g opacity=".34"><path fill="#fff" d="M148.496 28.834s-5.823-.527-5.823-5.339c0 0-.388 5.65-6.163 5.65 0 0 5.907 1.02 5.907 5.416 0 0 .507-5.727 6.08-5.727z"/></g><g opacity=".34"><path fill="#fff" d="M191.188 62.644s-2.567-.232-2.567-2.353c0 0-.171 2.49-2.717 2.49 0 0 2.604.45 2.604 2.387 0 0 .223-2.524 2.68-2.524z"/></g><g opacity=".34"><path fill="#fff" d="M193.341 102.466s-5.211-.471-5.211-4.778c0 0-.348 5.057-5.515 5.057 0 0 5.286.912 5.286 4.846 0 0 .454-5.125 5.44-5.125z"/></g><g opacity=".34"><path fill="#fff" d="M137.328 84.686s-2.567-.232-2.567-2.353c0 0-.17 2.49-2.716 2.49 0 0 2.603.45 2.603 2.387 0 0 .224-2.524 2.68-2.524z"/></g><g opacity=".34"><path fill="#fff" d="M127.829 66.812s-1.26-.114-1.26-1.155c0 0-.084 1.223-1.333 1.223 0 0 1.278.22 1.278 1.171 0 0 .11-1.239 1.315-1.239z"/></g><g opacity=".34" transform="rotate(-33.145 184 23.495)"><path fill="url(#nps4al)" d="M183.88 20.572c5.124.2 9.331 1.67 9.396 3.285.066 1.615-4.036 2.761-9.16 2.561-5.124-.2-9.332-1.67-9.397-3.285-.065-1.614 4.036-2.76 9.16-2.56z"/></g><g opacity=".34" transform="rotate(-45 247.675 221.565)"><path fill="url(#nps4am)" d="M247.479 217.007c5.036.218 9.208 2.437 9.317 4.955.11 2.519-3.885 4.383-8.922 4.165-5.036-.219-9.208-2.437-9.317-4.956-.11-2.518 3.885-4.382 8.922-4.164z"/></g><g opacity=".34"><path fill="#fff" d="M294.725 206.376s-5.823-.526-5.823-5.339c0 0-.388 5.65-6.163 5.65 0 0 5.907 1.02 5.907 5.416 0 0 .507-5.727 6.08-5.727z"/></g><g opacity=".34"><path fill="url(#nps4an)" d="M221.897 23.412s-2.493-.225-2.493-2.285c0 0-.166 2.418-2.638 2.418 0 0 2.528.437 2.528 2.319 0 0 .218-2.452 2.603-2.452z"/></g><g opacity=".34"><path fill="url(#nps4ao)" d="M247.973 71.467s-3.267-.296-3.267-2.995c0 0-.218 3.17-3.457 3.17 0 0 3.313.571 3.313 3.038 0 0 .285-3.213 3.41-3.213z"/></g><g opacity=".34"><path fill="url(#nps4ap)" d="M49.076 79.137s-3.382-.307-3.382-3.102c0 0-.226 3.282-3.58 3.282 0 0 3.431.592 3.431 3.146 0 0 .295-3.326 3.531-3.326z"/></g></g></g></g></svg>