<svg xmlns="http://www.w3.org/2000/svg" width="254" height="264" viewBox="0 0 254 264"><defs><linearGradient id="xoeba" x1="284.35" x2="273" y1="135.06" y2="-295.11" gradientUnits="userSpaceOnUse"><stop offset="0" stop-color="#fff792"/><stop offset="1" stop-color="#ff546b"/></linearGradient><linearGradient id="xoebb" x1="285.86" x2="348.57" y1="245.44" y2="245.44" gradientUnits="userSpaceOnUse"><stop offset="0" stop-color="#f25995"/><stop offset="1" stop-color="#591c89"/></linearGradient><linearGradient id="xoebc" x1="278.69" x2="316.34" y1="207.36" y2="226.27" gradientUnits="userSpaceOnUse"><stop offset="0" stop-color="#fff792"/><stop offset="1" stop-color="#ff546b"/></linearGradient><linearGradient id="xoebd" x1="316.01" x2="329.44" y1="211.66" y2="211.66" gradientUnits="userSpaceOnUse"><stop offset="0" stop-color="#e5e6ed"/><stop offset="1" stop-color="#62b7de"/></linearGradient><linearGradient id="xoebe" x1="304.9" x2="324.95" y1="176.76" y2="176.76" gradientUnits="userSpaceOnUse"><stop offset="0" stop-color="#de687a"/><stop offset="1" stop-color="#ff9c99"/></linearGradient><linearGradient id="xoebf" x1="331.66" x2="289.93" y1="161.36" y2="146.79" gradientUnits="userSpaceOnUse"><stop offset="0" stop-color="#0065af"/><stop offset=".48" stop-color="#12297f"/><stop offset="1" stop-color="#211b59"/></linearGradient><linearGradient id="xoebg" x1="297.69" x2="292.29" y1="168.92" y2="154.52" gradientUnits="userSpaceOnUse"><stop offset="0" stop-color="#f3ac45"/><stop offset="1" stop-color="#e63a4c"/></linearGradient><linearGradient id="xoebh" x1="260.05" x2="273.45" y1="183.97" y2="183.97" gradientUnits="userSpaceOnUse"><stop offset="0" stop-color="#e5e6ed"/><stop offset="1" stop-color="#62b7de"/></linearGradient><linearGradient id="xoebi" x1="263.95" x2="252.88" y1="162.83" y2="147.47" gradientUnits="userSpaceOnUse"><stop offset="0" stop-color="#de687a"/><stop offset="1" stop-color="#ff9c99"/></linearGradient><linearGradient id="xoebj" x1="282.84" x2="297.31" y1="129.28" y2="167.52" gradientUnits="userSpaceOnUse"><stop offset="0" stop-color="#0065af"/><stop offset=".48" stop-color="#12297f"/><stop offset="1" stop-color="#211b59"/></linearGradient><linearGradient id="xoebk" x1="258.59" x2="298.78" y1="137.19" y2="135.54" gradientUnits="userSpaceOnUse"><stop offset="0" stop-color="#f3ac45"/><stop offset="1" stop-color="#e63a4c"/></linearGradient><linearGradient id="xoebl" x1="259.17" x2="264.06" y1="75.75" y2="75.75" gradientUnits="userSpaceOnUse"><stop offset="0" stop-color="#de687a"/><stop offset="1" stop-color="#ff9c99"/></linearGradient><linearGradient id="xoebm" x1="270.02" x2="258.79" y1="96.36" y2="100.34" gradientUnits="userSpaceOnUse"><stop offset="0" stop-color="#de687a"/><stop offset="1" stop-color="#ff9c99"/></linearGradient><linearGradient id="xoebn" x1="272.53" x2="295.43" y1="98.07" y2="122.01" gradientUnits="userSpaceOnUse"><stop offset="0" stop-color="#00b9eb"/><stop offset=".48" stop-color="#004f9b"/><stop offset="1" stop-color="#0d2570"/></linearGradient><linearGradient id="xoebo" x1="253.45" x2="279.23" y1="77.05" y2="77.05" gradientUnits="userSpaceOnUse"><stop offset="0" stop-color="#ffd31a"/><stop offset="1" stop-color="#f80"/></linearGradient><linearGradient id="xoebp" x1="286.24" x2="320.83" y1="39.87" y2="121.85" gradientUnits="userSpaceOnUse"><stop offset="0" stop-color="#ffd31a"/><stop offset="1" stop-color="#f80"/></linearGradient><linearGradient id="xoebq" x1="284.65" x2="301.87" y1="41.91" y2="67.92" gradientUnits="userSpaceOnUse"><stop offset="0" stop-color="#ffd31a"/><stop offset="1" stop-color="#f80"/></linearGradient><linearGradient id="xoebr" x1="271.07" x2="322.34" y1="46" y2="146.07" gradientUnits="userSpaceOnUse"><stop offset="0" stop-color="#ffd31a"/><stop offset="1" stop-color="#f80"/></linearGradient><linearGradient id="xoebs" x1="266.79" x2="301.34" y1="65.44" y2="65.44" gradientUnits="userSpaceOnUse"><stop offset="0" stop-color="#ffd31a"/><stop offset="1" stop-color="#f80"/></linearGradient><linearGradient id="xoebt" x1="209.55" x2="248.53" y1="39.69" y2="85.48" gradientUnits="userSpaceOnUse"><stop offset="0" stop-color="#ffd31a"/><stop offset="1" stop-color="#f80"/></linearGradient><linearGradient id="xoebu" x1="243.61" x2="272.55" y1="65.91" y2="122.09" gradientUnits="userSpaceOnUse"><stop offset="0" stop-color="#ffd31a"/><stop offset="1" stop-color="#f80"/></linearGradient><linearGradient id="xoebv" x1="269.25" x2="305.75" y1="38.43" y2="95.26" gradientUnits="userSpaceOnUse"><stop offset="0" stop-color="#ffd31a"/><stop offset="1" stop-color="#f80"/></linearGradient><linearGradient id="xoebw" x1="266.17" x2="284.47" y1="51.14" y2="51.14" gradientUnits="userSpaceOnUse"><stop offset="0" stop-color="#ffd31a"/><stop offset="1" stop-color="#f80"/></linearGradient><linearGradient id="xoebx" x1="282.12" x2="301.05" y1="79.48" y2="79.48" gradientUnits="userSpaceOnUse"><stop offset="0" stop-color="#ffd31a"/><stop offset="1" stop-color="#f80"/></linearGradient><linearGradient id="xoeby" x1="271.92" x2="293.11" y1="65.72" y2="79.42" gradientUnits="userSpaceOnUse"><stop offset="0" stop-color="#ffd31a"/><stop offset="1" stop-color="#f80"/></linearGradient><linearGradient id="xoebz" x1="282.07" x2="295.87" y1="57.42" y2="57.42" gradientUnits="userSpaceOnUse"><stop offset="0" stop-color="#eb984c"/><stop offset="1" stop-color="#d8472c"/></linearGradient><linearGradient id="xoebA" x1="262.67" x2="267.41" y1="77.27" y2="77.27" gradientUnits="userSpaceOnUse"><stop offset="0" stop-color="#de687a"/><stop offset="1" stop-color="#ff9c99"/></linearGradient><linearGradient id="xoebB" x1="262.61" x2="265.33" y1="73.38" y2="73.38" gradientUnits="userSpaceOnUse"><stop offset="0" stop-color="#de687a"/><stop offset="1" stop-color="#ff9c99"/></linearGradient><linearGradient id="xoebC" x1="261.34" x2="264.05" y1="73.85" y2="73.85" gradientUnits="userSpaceOnUse"><stop offset="0" stop-color="#de687a"/><stop offset="1" stop-color="#ff9c99"/></linearGradient><linearGradient id="xoebD" x1="260.31" x2="263.02" y1="74.36" y2="74.36" gradientUnits="userSpaceOnUse"><stop offset="0" stop-color="#de687a"/><stop offset="1" stop-color="#ff9c99"/></linearGradient><linearGradient id="xoebE" x1="259.45" x2="262.16" y1="74.94" y2="74.94" gradientUnits="userSpaceOnUse"><stop offset="0" stop-color="#de687a"/><stop offset="1" stop-color="#ff9c99"/></linearGradient><linearGradient id="xoebF" x1="283.46" x2="308.76" y1="116.07" y2="116.07" gradientUnits="userSpaceOnUse"><stop offset="0" stop-color="#00b9eb"/><stop offset=".48" stop-color="#004f9b"/><stop offset="1" stop-color="#0d2570"/></linearGradient><linearGradient id="xoebG" x1="295.28" x2="307.11" y1="124.37" y2="124.37" gradientUnits="userSpaceOnUse"><stop offset="0" stop-color="#f3ac45"/><stop offset="1" stop-color="#e63a4c"/></linearGradient><linearGradient id="xoebH" x1="292.53" x2="300.31" y1="97.37" y2="97.37" gradientUnits="userSpaceOnUse"><stop offset="0" stop-color="#de687a"/><stop offset="1" stop-color="#ff9c99"/></linearGradient><linearGradient id="xoebI" x1="287.8" x2="300.94" y1="92.01" y2="105.11" gradientUnits="userSpaceOnUse"><stop offset="0" stop-color="#2a335d"/><stop offset="1" stop-color="#e1758f"/></linearGradient><linearGradient id="xoebJ" x1="302.65" x2="293" y1="95.53" y2="91.26" gradientUnits="userSpaceOnUse"><stop offset="0" stop-color="#de687a"/><stop offset="1" stop-color="#ff9c99"/></linearGradient><linearGradient id="xoebK" x1="294.8" x2="299.57" y1="87.61" y2="94.28" gradientUnits="userSpaceOnUse"><stop offset="0" stop-color="#2a335d"/><stop offset="1" stop-color="#e1758f"/></linearGradient><linearGradient id="xoebL" x1="293.08" x2="297.46" y1="93.2" y2="90.26" gradientUnits="userSpaceOnUse"><stop offset="0" stop-color="#de687a"/><stop offset="1" stop-color="#ff9c99"/></linearGradient><linearGradient id="xoebM" x1="296.88" x2="287.71" y1="88.62" y2="86.23" gradientUnits="userSpaceOnUse"><stop offset="0" stop-color="#2a335d"/><stop offset="1" stop-color="#e1758f"/></linearGradient><linearGradient id="xoebN" x1="317.96" x2="306.6" y1="99" y2="112.02" gradientUnits="userSpaceOnUse"><stop offset="0" stop-color="#00b9eb"/><stop offset=".48" stop-color="#004f9b"/><stop offset="1" stop-color="#0d2570"/></linearGradient><linearGradient id="xoebO" x1="329.61" x2="318.32" y1="113.5" y2="118.3" gradientUnits="userSpaceOnUse"><stop offset="0" stop-color="#de687a"/><stop offset="1" stop-color="#ff9c99"/></linearGradient><linearGradient id="xoebP" x1="307.25" x2="323.93" y1="104.08" y2="120.72" gradientUnits="userSpaceOnUse"><stop offset="0" stop-color="#2a335d"/><stop offset="1" stop-color="#e1758f"/></linearGradient><linearGradient id="xoebQ" x1="304.1" x2="315.46" y1="224.2" y2="224.2" gradientUnits="userSpaceOnUse"><stop offset="0" stop-color="#00b9eb"/><stop offset=".48" stop-color="#004f9b"/><stop offset="1" stop-color="#0d2570"/></linearGradient><linearGradient id="xoebR" x1="249.58" x2="264.58" y1="176.03" y2="176.03" gradientUnits="userSpaceOnUse"><stop offset="0" stop-color="#ffd31a"/><stop offset="1" stop-color="#f80"/></linearGradient><linearGradient id="xoebS" x1="252.31" x2="273.99" y1="167.07" y2="167.07" gradientUnits="userSpaceOnUse"><stop offset="0" stop-color="#e5e6ed"/><stop offset="1" stop-color="#62b7de"/></linearGradient><linearGradient id="xoebT" x1="302.73" x2="317.05" y1="200.24" y2="200.24" gradientUnits="userSpaceOnUse"><stop offset="0" stop-color="#ffd31a"/><stop offset="1" stop-color="#f80"/></linearGradient><linearGradient id="xoebU" x1="311.76" x2="329.69" y1="192.78" y2="192.78" gradientUnits="userSpaceOnUse"><stop offset="0" stop-color="#e5e6ed"/><stop offset="1" stop-color="#62b7de"/></linearGradient><linearGradient id="xoebV" x1="224.16" x2="286.87" y1="229.98" y2="229.98" gradientUnits="userSpaceOnUse"><stop offset="0" stop-color="#f25995"/><stop offset="1" stop-color="#591c89"/></linearGradient><linearGradient id="xoebW" x1="217.03" x2="254.67" y1="176.49" y2="195.4" gradientUnits="userSpaceOnUse"><stop offset="0" stop-color="#fff792"/><stop offset="1" stop-color="#ff546b"/></linearGradient><linearGradient id="xoebX" x1="249.9" x2="265.25" y1="193.21" y2="193.21" gradientUnits="userSpaceOnUse"><stop offset="0" stop-color="#00b9eb"/><stop offset=".48" stop-color="#004f9b"/><stop offset="1" stop-color="#0d2570"/></linearGradient><linearGradient id="xoebY" x1="201.52" x2="215.27" y1="135.15" y2="135.15" gradientUnits="userSpaceOnUse"><stop offset="0" stop-color="#f25995"/><stop offset="1" stop-color="#591c89"/></linearGradient><linearGradient id="xoebZ" x1="371.09" x2="380.74" y1="144.03" y2="144.03" gradientUnits="userSpaceOnUse"><stop offset="0" stop-color="#00b9eb"/><stop offset=".48" stop-color="#004f9b"/><stop offset="1" stop-color="#0d2570"/></linearGradient><linearGradient id="xoebaa" x1="338.86" x2="346.83" y1="109.61" y2="109.61" gradientUnits="userSpaceOnUse"><stop offset="0" stop-color="#1beb73"/><stop offset="1" stop-color="#00b9d0"/></linearGradient><linearGradient id="xoebab" x1="338.86" x2="346.83" y1="145.56" y2="145.56" gradientUnits="userSpaceOnUse"><stop offset="0" stop-color="#db8f3b"/><stop offset="1" stop-color="#e25af8"/></linearGradient><linearGradient id="xoebac" x1="341.07" x2="374.89" y1="172.38" y2="172.38" gradientUnits="userSpaceOnUse"><stop offset="0" stop-color="#fff792"/><stop offset="1" stop-color="#ff546b"/></linearGradient><linearGradient id="xoebad" x1="385.58" x2="390.14" y1="107.22" y2="107.22" gradientUnits="userSpaceOnUse"><stop offset="0" stop-color="#cb457d"/><stop offset="1" stop-color="#7444b6"/></linearGradient><linearGradient id="xoebae" x1="338.8" x2="358.93" y1="68.47" y2="68.47" gradientUnits="userSpaceOnUse"><stop offset="0" stop-color="#fff792"/><stop offset="1" stop-color="#ff546b"/></linearGradient><linearGradient id="xoebaf" x1="229.94" x2="238.25" y1="60.84" y2="60.84" gradientUnits="userSpaceOnUse"><stop offset="0" stop-color="#cb457d"/><stop offset="1" stop-color="#7444b6"/></linearGradient><linearGradient id="xoebag" x1="294.67" x2="301.47" y1="98.33" y2="112.01" gradientUnits="userSpaceOnUse"><stop offset="0" stop-color="#f3ac45"/><stop offset="1" stop-color="#e63a4c"/></linearGradient><linearGradient id="xoebah" x1="285.77" x2="254.29" y1="148.28" y2="147.24" gradientUnits="userSpaceOnUse"><stop offset="0" stop-color="#2a335d"/><stop offset="1" stop-color="#e1758f"/></linearGradient><linearGradient id="xoebai" x1="328.89" x2="275.89" y1="169.07" y2="167.32" gradientUnits="userSpaceOnUse"><stop offset="0" stop-color="#2a335d"/><stop offset="1" stop-color="#e1758f"/></linearGradient><linearGradient id="xoebaj" x1="262.27" x2="284.21" y1="105.57" y2="113.99" gradientUnits="userSpaceOnUse"><stop offset="0" stop-color="#2a335d"/><stop offset="1" stop-color="#e1758f"/></linearGradient><linearGradient id="xoebak" x1="257.37" x2="275.93" y1="105.4" y2="105.4" gradientUnits="userSpaceOnUse"><stop offset="0" stop-color="#d45689"/><stop offset="1" stop-color="#005dc6"/></linearGradient><linearGradient id="xoebal" x1="330.2" x2="348.45" y1="244.48" y2="244.48" gradientUnits="userSpaceOnUse"><stop offset="0" stop-color="#d45689"/><stop offset="1" stop-color="#005dc6"/></linearGradient><linearGradient id="xoebam" x1="221.6" x2="226.73" y1="23.5" y2="23.5" gradientUnits="userSpaceOnUse"><stop offset="0" stop-color="#fff792"/><stop offset="1" stop-color="#ff546b"/></linearGradient><linearGradient id="xoeban" x1="191.73" x2="247.32" y1="64.74" y2="117.49" gradientUnits="userSpaceOnUse"><stop offset="0" stop-color="#00b9eb"/><stop offset=".48" stop-color="#004f9b"/><stop offset="1" stop-color="#0d2570"/></linearGradient><linearGradient id="xoebao" x1="394.8" x2="401.77" y1="79.25" y2="79.25" gradientUnits="userSpaceOnUse"><stop offset="0" stop-color="#fff792"/><stop offset="1" stop-color="#ff546b"/></linearGradient></defs><g><g clip-path="url(#clip-3c5156a1-2b81-49fe-bb25-6e34c0923f47)" opacity=".34"><g opacity=".26"><path fill="url(#xoeba)" d="M156.204 195.792l1.017 30.922H94.514L130.211 0l51.415.078 37.285 195.791"/></g><g opacity=".34"><g opacity=".34" transform="rotate(180 125.865 245.435)"><path fill="url(#xoebb)" d="M94.514 264.163v-37.449h62.707v37.45z"/></g><g opacity=".34"><path fill="url(#xoebc)" d="M94.475 226.714c0-1.261 14.055-2.284 31.392-2.284 17.338 0 31.393 1.023 31.393 2.284 0 1.262-14.055 2.284-31.393 2.284-17.337 0-31.392-1.022-31.392-2.284z"/></g><g opacity=".34"><path fill="url(#xoebd)" d="M129.037 221.5h2.625s3.365-8.182 7.6-19.667h-13.15c-.72 5.883-.19 12.609 2.925 19.668z"/></g><g opacity=".34"><path fill="url(#xoebe)" d="M130.856 186.895h13.706c2.247-6.615 4.464-13.567 6.346-20.26l-18.48.02c.329 4.31 1.083 8.97 2.422 13.937 0 0-1.924 2.326-3.994 6.303z"/></g><g opacity=".34"><path fill="url(#xoebf)" d="M132.638 154.123l.001-.006c1.551-13.733 6.99-21.654 6.99-21.654h15.56c2.407 5.834-.118 19.37-4.281 34.172l-18.479.019-2.218.002z"/></g><g opacity=".34"><path fill="url(#xoebg)" d="M146.92 152.76l-2.358 13.896 6.346-.021 3.24-12.574z"/></g><g opacity=".34"><path fill="url(#xoebh)" d="M179.198 190.532h3.997s4.151-5.629 8.563-13.031c-3.632.028-9.272-.036-13.29-.094-.255 3.759-.073 8.106.73 13.125z"/></g><g opacity=".34"><path fill="url(#xoebi)" d="M168.476 156.758c14.338.542 22.528-1.91 23.82-2.333-.787.285-4.018 1.609-7.168 5.165l15.31.03c2.126-6.355 2.552-12.004-.741-14.95l-22.134-6.057z"/></g><g opacity=".34"><path fill="url(#xoebj)" d="M150.321 154.717c6.4 1.163 12.113 1.762 17.11 1.996.352.018.7.032 1.045.045l8.296-16.567.791-1.578-7.013-1.92-14.536-3.979-.793-.217h-15.73c.646 0-16.5 17.257 10.83 22.22z"/></g><g opacity=".34"><path fill="url(#xoebk)" d="M154.148 133.578l22.624 6.613.791-1.578-7.013-1.92-14.536-3.979z"/></g><g opacity=".34"><g opacity=".34"><path fill="url(#xoebl)" d="M181.875 78.784s2.71-3 1.938-4.936c-.77-1.937-3.85-1.968-3.85-1.968l-.899 7.741z"/></g><g opacity=".34"><path fill="url(#xoebm)" d="M176.901 99.096c-1.968 2.985-5.28 3.93-8.766 3.889 0 0-.806 8.172 2.335 13.134 3.012-.15 5.693-.771 7.352-1.915 20.51-14.135 4.065-35.414 4.065-35.414l-2.8.816s3.481 10.896-2.186 19.49z"/></g><g opacity=".34"><path fill="url(#xoebn)" d="M157.127 113.836c3.683 1.69 8.876 2.505 13.342 2.283-3.14-4.962-2.334-13.134-2.334-13.134-6.55-.077-15.545-4.099-15.545-4.099-3.979 5.415 4.537 14.95 4.537 14.95z"/></g><g opacity=".34"><g opacity=".34"><g opacity=".34" transform="rotate(119.011 182.945 77.05)"><path fill="url(#xoebo)" d="M179.787 65.156l5.469.206.848 23.575-5.47-.206z"/></g><g opacity=".34"><path fill="url(#xoebp)" d="M149.447 48.858l5.729 2.914c.976-2.217 1.37-3.687.95-3.9l-4.652-2.365z"/></g><g opacity=".34"><path fill="url(#xoebq)" d="M137.064 69.33l4.652 2.367c.856.435 4.775-4.546 8.754-11.125 2.033-3.36 3.687-6.486 4.706-8.8l-5.73-2.914z"/></g><g opacity=".34"><path fill="url(#xoebr)" d="M176.256 66.854c-.278-5.32-4.249-10.907-10.75-14.213l-9.38-4.769c.42.213.026 1.683-.95 3.9l8.043 4.09c5.578 2.836 10.016 6.701 13.037 10.992z"/></g><g opacity=".34"><path fill="url(#xoebs)" d="M141.716 71.697l9.38 4.769c9.09 4.622 19.684 3.035 23.663-3.544 1.134-1.874 1.608-3.95 1.497-6.068-3.02-4.29-7.459-8.156-13.037-10.993l-8.043-4.09c-1.019 2.315-2.673 5.441-4.705 8.801-3.98 6.58-7.899 11.56-8.755 11.125z"/></g><g opacity=".34"><path fill="#fa9d00" d="M200.083 78.03c-.034-.018-.078-.018-.13-.002l.15.014a.145.145 0 0 0-.02-.012z"/></g><g opacity=".34"><path fill="#fa9d00" d="M192.896 89.913a.121.121 0 0 0 .021.009l-.093-.111c.013.05.037.084.072.102z"/></g><g opacity=".34"><path fill="url(#xoebt)" d="M192.917 89.921l.005.002c.484.117 2.41-2.332 4.356-5.55 1.947-3.22 3.193-6.014 2.828-6.327 0-.002-.003-.003-.003-.004l-.15-.014-1.453-.142c-.281 1.064-1.35 3.249-2.818 5.675-1.464 2.42-2.915 4.403-3.751 5.19l.893 1.06z"/></g><g opacity=".34"><path fill="#fa9d00" d="M200.103 78.042l.003.003.002-.002z"/></g><g opacity=".34"><path fill="url(#xoebu)" d="M191.386 88.105l.545.646c.836-.787 2.287-2.77 3.751-5.19 1.467-2.427 2.537-4.612 2.818-5.675l-.877-.085-8.872-.864-2.832 4.683z"/></g><g opacity=".34"><path fill="#fa9d00" d="M192.92 89.925l.003-.003h-.006z"/></g><g opacity=".34"><path fill="url(#xoebv)" d="M157.766 48.706l.85.432c.202-.285.422-.564.661-.834 3.562-4.015 10-4.621 14.378-1.356a9.607 9.607 0 0 1 2.443 2.646c-.63-1.358-1.619-2.599-2.954-3.595-4.379-3.265-10.816-2.659-14.378 1.356a9.51 9.51 0 0 0-1 1.35z"/></g><g opacity=".34"><path fill="url(#xoebw)" d="M170.933 48.492a6.195 6.195 0 0 1 2.016 2.53 5.695 5.695 0 0 1 .08 4.297l.665.495 2.163 1.614a8.682 8.682 0 0 0 .241-7.834 9.609 9.609 0 0 0-2.443-2.646c-4.378-3.265-10.816-2.659-14.378 1.356-.239.27-.46.549-.66.834l2.214 1.126c.186-.305.404-.6.653-.881 2.341-2.639 6.571-3.037 9.449-.891z"/></g><g opacity=".34"><path fill="url(#xoebx)" d="M148.996 85.924c4.605 1.445 9.56-.297 12.01-3.943l-.972-.304c-2.245 2.629-6.138 3.8-9.779 2.657-4.597-1.442-7.048-6.029-5.475-10.244.088-.235.186-.464.295-.686l-1.72-.874c-.281.47-.523.969-.72 1.493-1.827 4.897 1.02 10.225 6.36 11.9z"/></g><g opacity=".34"><path fill="url(#xoeby)" d="M150.255 84.334c3.64 1.143 7.534-.028 9.78-2.657l-2.478-.778c-1.719 1.977-4.668 2.85-7.426 1.985-3.51-1.101-5.38-4.602-4.18-7.82.128-.342.286-.668.47-.975l-1.346-.685c-.109.222-.207.45-.294.686-1.574 4.215.877 8.802 5.474 10.244z"/></g><g opacity=".34" transform="rotate(-60.989 144.26 57.415)"><path fill="url(#xoebz)" d="M144.198 55.677c7.683.29 13.94 1.302 13.974 2.261.035.96-6.166 1.503-13.849 1.214-7.683-.29-13.94-1.302-13.974-2.261-.035-.96 6.166-1.503 13.85-1.214z"/></g></g><g opacity=".34"><path fill="#fff" d="M154.625 62.913l2.64 2.597a.26.26 0 0 1 .044.323l-1.878 3.104c-.142.235.126.5.392.386l3.51-1.5a.321.321 0 0 1 .348.062l2.64 2.597c.2.196.556.044.52-.222l-.47-3.524a.273.273 0 0 1 .171-.285l3.51-1.5c.265-.113.217-.471-.07-.522l-3.8-.678a.288.288 0 0 1-.243-.239l-.47-3.523c-.036-.266-.423-.335-.565-.1l-1.877 3.104a.312.312 0 0 1-.323.137l-3.8-.678c-.287-.05-.478.265-.279.461z"/></g></g><g opacity=".34"><path fill="url(#xoebA)" d="M179.065 79.621l-3.374-4.647s.917-.343 1.148.587c0 0 2.915 1.068 3.59 3.654z"/></g><g opacity=".34"><g opacity=".34"><path fill="url(#xoebB)" d="M179.579 71.35l-1.584 3.68s.477.844 1.012.412l1.7-3.826s-.656-.74-1.128-.267z"/></g><g opacity=".34"><path fill="url(#xoebC)" d="M180.545 71.82l-1.584 3.68s.477.844 1.012.412l1.7-3.827s-.656-.74-1.128-.266z"/></g><g opacity=".34"><path fill="url(#xoebD)" d="M181.574 72.331l-1.584 3.68s.477.845 1.012.413l1.7-3.827s-.656-.74-1.128-.266z"/></g><g opacity=".34"><path fill="url(#xoebE)" d="M182.45 72.916l-1.585 3.68s.477.845 1.012.412l1.7-3.826s-.655-.74-1.128-.266z"/></g></g></g><g opacity=".34"><path fill="url(#xoebF)" d="M136.082 116.035c2.049 6.771 4.964 14.52 3.86 16.368a109.367 109.367 0 0 0 7.832.975c4.13.346 8.444.368 8.911-.975.919-2.643 3.74-22.211 2.637-27.272-1.105-5.06-7.424-8.632-16.407-5.243 0 0-7.157 1.554-8.506 6.39-.512 1.835.419 5.614 1.673 9.757z"/></g><g opacity=".34"><path fill="url(#xoebG)" d="M136.082 116.035c2.049 6.771 4.964 14.52 3.86 16.368 0 0 1.595.266 3.802.546l4.03.429c0-.031-.003-4.342-1.888-9.642-1.891-5.32-9.943-8.37-9.943-8.37z"/></g><g opacity=".34"><g opacity=".34"><path fill="url(#xoebH)" d="M150.494 105.13s-2.003-8.076-1.125-11.944l.013-.056-2.086-3.516s-3.827 3.1-4.584 12.089c0 0 4.042 3.428 7.782 3.428z"/></g><g opacity=".09"><path fill="url(#xoebI)" d="M150.494 105.13s-2.003-8.076-1.125-11.944l-2.217-1.521c-2.928 6.291 3.342 13.466 3.342 13.466z"/></g><g opacity=".34"><path fill="url(#xoebJ)" d="M151.782 90.752l.31 4.32s-4.668.796-4.897-1.129c-.228-1.924.251-6.195.251-6.195s4.026-1.315 4.336 3.004z"/></g><g opacity=".34"><path fill="url(#xoebK)" d="M147.204 90.925l.51-.019s0-2.502.86-2.687c.858-.185 0-1.112-.708-1.112s-2.274.463-2.224 2.224c.05 1.76-.001 2.352-.001 2.352l1.492-1.61z"/></g><g opacity=".34"><path fill="url(#xoebL)" d="M147.296 89.613s-.845-.467-1.098.552c-.253 1.02.954 1.499.954 1.499z"/></g><g opacity=".34"><path fill="url(#xoebM)" d="M148.779 87.56s.199 1.632 2.725 1.169c2.527-.464 1.769-1.993 1.769-1.993s-.556.371-1.01.14c0 0 .505-.279.303-.835 0 0-.506.603-1.466.371-.96-.232-5.046-.022-2.321 1.147z"/></g></g><g opacity=".34"><path fill="url(#xoebN)" d="M127.905 105.367c3.279 3.559 1.522 11.125 1.496 11.233 2.094-.842 4.338-1.372 6.543-1.234 0 0 4.216-3.147 2.661-13.712 0 0-5.021 1.17-10.702 3.712z"/></g><g opacity=".34"><path fill="url(#xoebO)" d="M136.49 132.944s2.132 1.439 3.366 1.541c1.234.103 1.458-3.598.673-4.422-.785-.822-4.039 0-4.039 0a.668.668 0 0 0-.217.076l-.006-.076s-11.554-7.198-16.936-6.786c0 0 2.969-2.923 7.058-5.221a26.018 26.018 0 0 1 3.012-1.456c.026-.106 1.73-7.45-1.352-11.07l-.144-.163h-.002c-2.075.93-4.234 2.04-6.27 3.345-4.466 2.863-8.332 6.653-9.37 11.479-2.803 13.06 24.227 12.753 24.227 12.753z"/></g><g opacity=".11"><path fill="url(#xoebP)" d="M126.39 118.056a26.026 26.026 0 0 1 3.011-1.456c.026-.106 1.73-7.45-1.352-11.07l-.144-.163s2.037 7.734-1.516 12.689z"/></g><g opacity=".34"><path fill="url(#xoebQ)" d="M131.63 221.567s2.137 3.708 5.237 3.443c3.1-.265 2.458 1.457.534 1.722-1.924.265-7.055-.662-8.124 0-1.068.662-2.672-1.987-.64-5.165z"/></g><g opacity=".34"><path fill="url(#xoebR)" d="M178.469 177.407c4.017.058 9.657.122 13.289.094a149.78 149.78 0 0 0 1.716-2.95H178.76a41.95 41.95 0 0 0-.291 2.856z"/></g><g opacity=".34"><path fill="url(#xoebS)" d="M178.76 174.55h14.714c2.71-4.783 5.327-10.048 6.955-14.903a.04.04 0 0 0 .004-.016l.005-.012-15.31-.03c-2.722 3.07-5.384 7.802-6.368 14.962z"/></g><g opacity=".34"><path fill="url(#xoebT)" d="M126.112 201.833h13.15c.382-1.034.77-2.094 1.163-3.179h-13.793a39.792 39.792 0 0 0-.52 3.18z"/></g><g opacity=".34"><path fill="url(#xoebU)" d="M126.632 198.654h13.793a608.137 608.137 0 0 0 4.137-11.759h-13.706c-1.59 3.052-3.263 7.072-4.224 11.76z"/></g><g opacity=".34" transform="rotate(180 187.555 229.975)"><path fill="url(#xoebV)" d="M156.204 264.163v-68.371h62.707v68.371z"/></g><g opacity=".34"><path fill="url(#xoebW)" d="M156.125 195.843c0-1.261 14.055-2.284 31.393-2.284s31.393 1.023 31.393 2.284c0 1.262-14.055 2.284-31.393 2.284s-31.393-1.022-31.393-2.284z"/></g><g opacity=".34"><path fill="url(#xoebX)" d="M183.2 190.576s2.89 3.708 7.079 3.443c4.188-.265 3.322 1.457.722 1.722-2.6.265-9.534-.662-10.978 0-1.445.662-3.611-1.987-.867-5.165z"/></g></g><g opacity=".34"><path fill="url(#xoebY)" d="M235.928 139.597l5.631-8.886h-5.631l-8.12 8.045z"/></g><g opacity=".34"><path fill="url(#xoebZ)" d="M72.158 145.75l-7.269-5.895-2.376 2.948 6.15 5.382z"/></g><g opacity=".34"><path fill="url(#xoebaa)" d="M98.715 112.942l5.59-6.664-5.59.128-2.376 6.28z"/></g><g opacity=".34"><path fill="url(#xoebab)" d="M104.306 147.032h-7.967v-2.948z"/></g><g opacity=".34"><path fill="url(#xoebac)" d="M70.863 180.125l19.849-15.507h-9.925l-23.901 9.74z"/></g><g opacity=".34"><path fill="url(#xoebad)" d="M57.097 110.516l-4.008-3.953-.182-2.64 4.56 4.499z"/></g><g opacity=".34"><path fill="url(#xoebae)" d="M90.608 75.264l13.698-15.25-15.235 2.178-4.893 14.738z"/></g><g opacity=".34"><path fill="url(#xoebaf)" d="M213.148 61.768l-4.067-6.993-4.237 2.642 8.304 9.478z"/></g><g opacity=".34"><path fill="url(#xoebag)" d="M150.494 105.131s-5.568-1.915-7.579-5.243c0 0-1.278-.12-1.928 2.136 0 0 5.474 4.48 9.507 3.107z"/></g><g opacity=".1"><path fill="url(#xoebah)" d="M177.563 138.613l-9.087 18.145h4.544l5.74-17.818z"/></g><g opacity=".14"><path fill="url(#xoebai)" d="M150.908 166.635l-18.479.019.3 3.057h17.296z"/></g><g opacity=".11"><path fill="url(#xoebaj)" d="M168.135 102.985s1.778 10.901 5.483 12.776l-3.148.358s-3.01-4.108-2.335-13.134z"/></g><g opacity=".34"><path fill="#fff" d="M148.076 28.834s-5.824-.527-5.824-5.339c0 0-.388 5.65-6.163 5.65 0 0 5.907 1.02 5.907 5.416 0 0 .508-5.727 6.08-5.727z"/></g><g opacity=".34"><path fill="#fff" d="M190.767 62.644s-2.567-.232-2.567-2.353c0 0-.17 2.49-2.716 2.49 0 0 2.603.45 2.603 2.387 0 0 .224-2.524 2.68-2.524z"/></g><g opacity=".34"><path fill="#fff" d="M192.92 102.466s-5.21-.471-5.21-4.778c0 0-.348 5.057-5.516 5.057 0 0 5.286.912 5.286 4.846 0 0 .454-5.125 5.44-5.125z"/></g><g opacity=".34"><path fill="#fff" d="M136.908 84.686s-2.567-.232-2.567-2.353c0 0-.171 2.49-2.717 2.49 0 0 2.604.45 2.604 2.387 0 0 .224-2.524 2.68-2.524z"/></g><g opacity=".34"><path fill="#fff" d="M127.408 66.812s-1.26-.114-1.26-1.155c0 0-.083 1.223-1.332 1.223 0 0 1.277.22 1.277 1.171 0 0 .11-1.239 1.315-1.239z"/></g><g opacity=".34" transform="rotate(-33.145 183.58 23.495)"><path fill="url(#xoebak)" d="M183.46 20.572c5.124.2 9.33 1.67 9.396 3.285.065 1.615-4.036 2.761-9.16 2.561-5.125-.2-9.332-1.67-9.397-3.285-.065-1.614 4.036-2.76 9.16-2.56z"/></g><g opacity=".34" transform="rotate(-45 247.255 221.565)"><path fill="url(#xoebal)" d="M247.058 217.007c5.037.218 9.208 2.437 9.317 4.955.11 2.519-3.885 4.383-8.921 4.165-5.037-.219-9.208-2.437-9.318-4.956-.109-2.518 3.886-4.382 8.922-4.164z"/></g><g opacity=".34"><path fill="#fff" d="M294.305 206.376s-5.823-.526-5.823-5.339c0 0-.389 5.65-6.163 5.65 0 0 5.906 1.02 5.906 5.416 0 0 .508-5.727 6.08-5.727z"/></g><g opacity=".34"><path fill="url(#xoebam)" d="M221.476 23.412s-2.492-.225-2.492-2.285c0 0-.167 2.418-2.639 2.418 0 0 2.529.437 2.529 2.319 0 0 .217-2.452 2.602-2.452z"/></g><g opacity=".34"><path fill="url(#xoeban)" d="M247.552 71.467s-3.267-.296-3.267-2.995c0 0-.218 3.17-3.457 3.17 0 0 3.314.571 3.314 3.038 0 0 .284-3.213 3.41-3.213z"/></g><g opacity=".34"><path fill="url(#xoebao)" d="M48.656 79.137s-3.383-.307-3.383-3.102c0 0-.225 3.282-3.58 3.282 0 0 3.432.592 3.432 3.146 0 0 .294-3.326 3.53-3.326z"/></g></g></g></svg>