<?xml version="1.0" encoding="UTF-8" standalone="no"?>
<svg
   viewBox="0 0 135 40"
   version="1.1"
   id="svg66"
   sodipodi:docname="playStore.svg"
   inkscape:version="1.1 (ce6663b3b7, 2021-05-25)"
   width="135"
   height="40"
   xmlns:inkscape="http://www.inkscape.org/namespaces/inkscape"
   xmlns:sodipodi="http://sodipodi.sourceforge.net/DTD/sodipodi-0.dtd"
   xmlns="http://www.w3.org/2000/svg"
   xmlns:svg="http://www.w3.org/2000/svg">
  <sodipodi:namedview
     id="namedview68"
     pagecolor="#ffffff"
     bordercolor="#666666"
     borderopacity="1.0"
     inkscape:pageshadow="2"
     inkscape:pageopacity="0.0"
     inkscape:pagecheckerboard="0"
     showgrid="false"
     inkscape:zoom="4.365957"
     inkscape:cx="62.643769"
     inkscape:cy="5.3825542"
     inkscape:window-width="1848"
     inkscape:window-height="1016"
     inkscape:window-x="72"
     inkscape:window-y="27"
     inkscape:window-maximized="1"
     inkscape:current-layer="svg66" />
  <defs
     id="defs40">
    <linearGradient
       id="a"
       x1="31.799999"
       y1="183.28999"
       x2="15.02"
       y2="166.50999"
       gradientTransform="matrix(1,0,0,-1,-9.2547463,191.82856)"
       gradientUnits="userSpaceOnUse">
      <stop
         offset="0"
         stop-color="#00a0ff"
         id="stop2" />
      <stop
         offset=".01"
         stop-color="#00a1ff"
         id="stop4" />
      <stop
         offset=".26"
         stop-color="#00beff"
         id="stop6" />
      <stop
         offset=".51"
         stop-color="#00d2ff"
         id="stop8" />
      <stop
         offset=".76"
         stop-color="#00dfff"
         id="stop10" />
      <stop
         offset="1"
         stop-color="#00e3ff"
         id="stop12" />
    </linearGradient>
    <linearGradient
       id="b"
       x1="43.830002"
       y1="172"
       x2="19.639999"
       y2="172"
       gradientTransform="matrix(1,0,0,-1,-9.2447463,191.96856)"
       gradientUnits="userSpaceOnUse">
      <stop
         offset="0"
         stop-color="#ffe000"
         id="stop15" />
      <stop
         offset=".41"
         stop-color="#ffbd00"
         id="stop17" />
      <stop
         offset=".78"
         stop-color="orange"
         id="stop19" />
      <stop
         offset="1"
         stop-color="#ff9c00"
         id="stop21" />
    </linearGradient>
    <linearGradient
       id="c"
       x1="34.830002"
       y1="169.7"
       x2="12.07"
       y2="146.95"
       gradientTransform="matrix(1,0,0,-1,-9.2547463,191.97856)"
       gradientUnits="userSpaceOnUse">
      <stop
         offset="0"
         stop-color="#ff3a44"
         id="stop24" />
      <stop
         offset="1"
         stop-color="#c31162"
         id="stop26" />
    </linearGradient>
    <linearGradient
       id="d"
       x1="17.299999"
       y1="191.82001"
       x2="27.459999"
       y2="181.66"
       gradientTransform="matrix(1,0,0,-1,-9.2547463,191.68856)"
       gradientUnits="userSpaceOnUse">
      <stop
         offset="0"
         stop-color="#32a071"
         id="stop29" />
      <stop
         offset=".07"
         stop-color="#2da771"
         id="stop31" />
      <stop
         offset=".48"
         stop-color="#15cf74"
         id="stop33" />
      <stop
         offset=".8"
         stop-color="#06e775"
         id="stop35" />
      <stop
         offset="1"
         stop-color="#00f076"
         id="stop37" />
    </linearGradient>
  </defs>
  <rect
     x="0.0032474645"
     y="0.0069792103"
     width="135"
     height="40"
     rx="5"
     ry="5"
     id="rect44"
     inkscape:export-filename="/home/alimahmudlu/rect44.png"
     inkscape:export-xdpi="300"
     inkscape:export-ydpi="300" />
  <path
     d="m 130.00325,0.80698046 a 4.2,4.2 0 0 1 4.2,4.19999994 V 35.006986 a 4.2,4.2 0 0 1 -4.2,4.2 H 5.003247 a 4.2,4.2 0 0 1 -4.19999999,-4.2 V 5.0069804 A 4.2,4.2 0 0 1 5.003247,0.80698046 H 130.00325 m 0,-0.8 H 5.003247 A 5,5 0 0 0 0.00324701,5.0069804 V 35.006986 a 5,5 0 0 0 4.99999999,5 H 130.00325 a 5,5 0 0 0 5,-5 V 5.0069804 a 5,5 0 0 0 -5,-4.99999994 z"
     fill="#a6a6a6"
     id="path46"
     inkscape:export-filename="/home/alimahmudlu/rect44.png"
     inkscape:export-xdpi="300"
     inkscape:export-ydpi="300" />
  <path
     d="m 48.145372,11.749308 a 2.71,2.71 0 0 1 -0.75,2 2.91,2.91 0 0 1 -2.2,0.89 3.15,3.15 0 0 1 -2.21,-5.3700006 3,3 0 0 1 2.21,-0.9 3.1,3.1 0 0 1 1.23,0.25 2.47,2.47 0 0 1 0.94,0.67 l -0.53,0.5300001 a 2,2 0 0 0 -1.64,-0.7100001 2.32,2.32 0 0 0 -2.33,2.4000006 2.36,2.36 0 0 0 4,1.73 1.89,1.89 0 0 0 0.5,-1.22 h -2.17 v -0.72 h 2.91 a 2.54,2.54 0 0 1 0.04,0.45 z m 4.58,-2.5000006 h -2.7 v 1.9000006 h 2.46 v 0.72 h -2.46 v 1.9 h 2.7 v 0.74 h -3.5 V 8.5093074 h 3.5 z m 3.28,5.2600006 h -0.77 V 9.2493074 h -1.68 v -0.74 h 4.17 v 0.74 h -1.72 z m 4.66,0 V 8.5093074 h 0.77 v 6.0000006 z m 4.19,0 h -0.77 V 9.2493074 h -1.68 v -0.74 h 4.12 v 0.74 h -1.67 z m 9.48,-0.78 a 3.12,3.12 0 0 1 -4.4,0 3.24,3.24 0 0 1 0,-4.4500006 3.1,3.1 0 0 1 4.4,0 3.23,3.23 0 0 1 0,4.4500006 z m -3.83,-0.5 a 2.31,2.31 0 0 0 3.26,0 2.56,2.56 0 0 0 0,-3.4400006 2.31,2.31 0 0 0 -3.26,0 2.56,2.56 0 0 0 0,3.4400006 z m 5.8,1.28 V 8.5093074 h 0.94 l 2.92,4.6700006 V 8.5093074 h 0.77 v 6.0000006 h -0.8 l -3.05,-4.8900006 v 4.8900006 z"
     fill="#ffffff"
     stroke="#ffffff"
     stroke-miterlimit="10"
     stroke-width="0.2"
     id="path48"
     inkscape:export-filename="/home/alimahmudlu/rect44.png"
     inkscape:export-xdpi="300"
     inkscape:export-ydpi="300" />
  <path
     d="m 66.393504,23.161457 a 4.25,4.25 0 1 0 4.27,4.25 4.19,4.19 0 0 0 -4.27,-4.25 z m 0,6.830009 a 2.58,2.58 0 1 1 2.4,-2.580009 2.46,2.46 0 0 1 -2.4,2.580009 z m -9.31,-6.830009 a 4.25,4.25 0 1 0 4.26,4.25 4.19,4.19 0 0 0 -4.27,-4.25 z m 0,6.830009 a 2.58,2.58 0 1 1 2.39,-2.580009 2.46,2.46 0 0 1 -2.4,2.580009 z m -11.09,-5.520009 v 1.8 h 4.32 a 3.77,3.77 0 0 1 -1,2.27 4.42,4.42 0 0 1 -3.33,1.320009 4.8000045,4.8000045 0 0 1 0,-9.600009 4.6,4.6 0 0 1 3.27,1.29 l 1.27,-1.27 a 6.29,6.29 0 0 0 -4.53,-1.87 6.61,6.61 0 1 0 0,13.210009 6,6 0 0 0 4.61,-1.850004 6,6 0 0 0 1.56,-4.220005 5.87,5.87 0 0 0 -0.1,-1.13 z m 45.309996,1.4 a 4,4 0 0 0 -3.639996,-2.71 4,4 0 0 0 -4,4.25 4.16,4.16 0 0 0 4.22,4.250009 4.23,4.23 0 0 0 3.539996,-1.880004 l -1.45,-1.000005 a 2.43,2.43 0 0 1 -2.089996,1.180009 2.16,2.16 0 0 1 -2.06,-1.290009 l 5.689996,-2.35 z m -5.799996,1.42 a 2.33,2.33 0 0 1 2.22,-2.48 1.65,1.65 0 0 1 1.58,0.9 z m -4.62,4.120009 h 1.87 V 18.911457 h -1.87 z m -3.06,-7.300009 h -0.07 a 3,3 0 0 0 -2.24,-1 4.26,4.26 0 0 0 0,8.510009 2.9,2.9 0 0 0 2.24,-1 h 0.06 v 0.61 c 0,1.63 -0.87,2.5 -2.27,2.5 a 2.35,2.35 0 0 1 -2.14,-1.51 l -1.63,0.68 a 4.05,4.05 0 0 0 3.77,2.51 c 2.19,0 4,-1.29 4,-4.43 v -7.570009 h -1.72 z m -2.14,5.880009 a 2.59,2.59 0 0 1 0,-5.160009 2.4,2.4 0 0 1 2.27,2.58 2.38,2.38 0 0 1 -2.28,2.580009 z M 100.0635,18.911457 h -4.47 v 12.500009 h 1.87 v -4.740009 h 2.61 a 3.89,3.89 0 1 0 0,-7.76 z m 0,6 h -2.61 v -4.26 h 2.65 a 2.145,2.145 0 1 1 0,4.29 z m 11.53,-1.8 a 3.5,3.5 0 0 0 -3.33,1.91 l 1.66,0.69 a 1.77,1.77 0 0 1 1.7,-0.92 1.8,1.8 0 0 1 2,1.61 v 0.13 a 4.13,4.13 0 0 0 -1.95,-0.48 c -1.79,0 -3.6,1 -3.6,2.81 a 2.89,2.89 0 0 0 3.1,2.750009 2.63,2.63 0 0 0 2.4,-1.2 h 0.06 v 1 h 1.8 v -4.810009 c 0,-2.19 -1.66,-3.46 -3.79,-3.46 z m -0.23,6.850009 c -0.61,0 -1.46,-0.310009 -1.46,-1.060009 0,-1 1.06,-1.33 2,-1.33 a 3.32,3.32 0 0 1 1.7,0.42 2.26,2.26 0 0 1 -2.19,2.000009 z m 10.63,-6.550009 -2.14,5.42 h -0.06 l -2.22,-5.42 h -2 l 3.33,7.580009 -1.9,4.21 h 1.95 l 5.12,-11.790009 z m -16.81,8.000009 h 1.87 V 18.911457 h -1.87 z"
     fill="#ffffff"
     id="path50"
     inkscape:export-filename="/home/alimahmudlu/rect44.png"
     inkscape:export-xdpi="300"
     inkscape:export-ydpi="300" />
  <path
     d="m 11.185254,7.3685644 a 2,2 0 0 0 -0.46,1.4 V 30.888566 a 2,2 0 0 0 0.46,1.4 l 0.07,0.07 12.39,-12.380001 v -0.29 l -12.39,-12.3900006 z"
     fill="url(#a)"
     id="path52"
     inkscape:export-filename="/home/alimahmudlu/rect44.png"
     inkscape:export-xdpi="300"
     inkscape:export-ydpi="300"
     style="fill:url(#a)" />
  <path
     d="m 27.755254,24.248566 -4.1,-4.13 v -0.29 l 4.1,-4.14 0.09,0.05 4.91,2.79 c 1.4,0.79 1.4,2.09 0,2.89 l -4.89,2.78 z"
     fill="url(#b)"
     id="path54"
     inkscape:export-filename="/home/alimahmudlu/rect44.png"
     inkscape:export-xdpi="300"
     inkscape:export-ydpi="300"
     style="fill:url(#b)" />
  <path
     d="m 27.865254,24.198566 -4.22,-4.22 -12.46,12.46 a 1.63,1.63 0 0 0 2.08,0.06 l 14.61,-8.3"
     fill="url(#c)"
     id="path56"
     inkscape:export-filename="/home/alimahmudlu/rect44.png"
     inkscape:export-xdpi="300"
     inkscape:export-ydpi="300"
     style="fill:url(#c)" />
  <path
     d="m 27.865254,15.468565 -14.61,-8.3000006 a 1.63,1.63 0 0 0 -2.08,0.06 l 12.47,12.4600006 z"
     fill="url(#d)"
     id="path58"
     inkscape:export-filename="/home/alimahmudlu/rect44.png"
     inkscape:export-xdpi="300"
     inkscape:export-ydpi="300"
     style="fill:url(#d)" />
  <path
     d="m 27.745254,24.108566 -14.49,8.25 a 1.67,1.67 0 0 1 -2,0 l -0.07,0.07 0.07,0.07 a 1.66,1.66 0 0 0 2,0 l 14.61,-8.3 z"
     style="isolation:isolate"
     opacity="0.2"
     id="path60"
     inkscape:export-filename="/home/alimahmudlu/rect44.png"
     inkscape:export-xdpi="300"
     inkscape:export-ydpi="300" />
</svg>
