<svg xmlns="http://www.w3.org/2000/svg" width="113" height="35" viewBox="0 0 113 35"><g><g><path fill="#fff" d="M22.655 25.985l16.059.069.025 1.888.026 1.889H22.828c-.055 0-.116-.865-.136-1.922zm.007-7.684h13.651v3.843H22.662zm65.877-3.374c-.217-.135-2.057-.225-2.46-.12-1.26.33-1.877.672-2.707 1.5-1.08 1.077-1.24 1.323-1.587 2.447-.25.807-.278 1.226-.278 4.067v3.167h3.042c3.336 0 4.016-.091 5.131-.686.744-.397 2.032-1.54 2.032-1.804 0-.076.045-.159.1-.183.146-.065.664-1.28.838-1.966.287-1.13-.167-3.229-.886-4.1-.647-.785-1.512-1.6-1.7-1.6-.114 0-.207-.051-.207-.116 0-.116-.599-.407-.945-.46a1.193 1.193 0 0 1-.373-.146zm-3.387-3.9c.739-.17 2.91-.176 3.852-.01.874.154 1.95.54 2.815 1.011.582.318.68.39 1.318.974.2.183.484.423.63.532.145.109.324.294.397.41.073.118.379.537.68.932 1.274 1.674 1.849 3.637 1.72 5.876-.09 1.558-.132 1.885-.255 2.008-.05.05-.09.2-.09.332 0 .328-.99 2.326-1.431 2.89-.965 1.23-2.357 2.38-3.606 2.978-1.457.698-1.943.77-5.765.857l-3.579.08-.036 2.552-.035 2.55h-2.085L77.597 35l.07-8.317c.066-8.027.079-8.344.349-9.111.361-1.03 1.1-2.489 1.326-2.625.097-.058.177-.178.177-.266 0-.088.12-.235.265-.326.146-.09.266-.24.266-.33.001-.09.191-.313.422-.496.232-.182.692-.555 1.024-.828.331-.273.678-.497.77-.497.093 0 .169-.05.169-.111 0-.187 1.557-.798 2.717-1.066zm-15.573-.215l1.998.04 1.999.04-.057 6.057c-.057 6.095-.094 6.587-.574 7.667-.102.23-.185.483-.185.563 0 .08-.06.146-.133.146-.073 0-.132.068-.132.152 0 .084-.209.407-.464.718s-.464.609-.464.66c0 .11-.735.815-1.203 1.154-1.937 1.404-3.533 1.895-5.803 1.787-.703-.034-1.397-.105-1.542-.158-2.627-.964-3.078-1.256-4.634-3.004-.466-.525-1.264-1.821-1.264-2.055 0-.09-.068-.333-.151-.538-.274-.675-.283-.852-.336-7.033l-.053-6.13h3.853v5.508c0 5.795.046 6.34.605 7.216.382.598 1.32 1.59 1.505 1.59.079 0 .143.045.143.1 0 .112.46.32 1.248.568.793.249 2.284.091 3.08-.325.72-.377 1.636-1.153 1.636-1.388 0-.08.057-.147.127-.147.133 0 .412-.558.655-1.312.097-.3.146-2.374.146-6.163zm-38.998.035c4.355-.02 7.963-.016 8.018.006.055.023.1.902.1 1.955v1.914H22.662v-3.841l7.919-.034zm-12.127.006c.055.023.1.903.1 1.955v1.914h-6.31c-5.55 0-6.362.026-6.762.216-.994.472-1.344 1.456-.848 2.389.563 1.062.405 1.03 5.702 1.113 4.147.064 4.783.102 5.359.318a5.59 5.59 0 0 1 2.25 1.561c.673.78.647.737 1.011 1.626.279.68.326 1.009.326 2.253 0 1.387-.021 1.502-.444 2.358a6.004 6.004 0 0 1-2.707 2.724l-.957.485-6.918.04-6.918.04-.04-1.83c-.022-1.006-.022-1.873 0-1.928.023-.055 2.874-.1 6.336-.1 5.586 0 6.342-.024 6.718-.218.937-.482 1.37-1.497.969-2.272-.245-.473-.92-1.063-1.317-1.153-.158-.035-2.286-.08-4.728-.1l-4.44-.034-.928-.452c-.51-.25-.963-.458-1.006-.464-.177-.025-1.3-1.24-1.618-1.752a5.923 5.923 0 0 1-.543-1.259c-.2-.705-.32-2.481-.182-2.712.04-.066.114-.329.167-.584.268-1.297 1.666-2.89 3.215-3.662l.763-.38 6.825-.066c3.754-.037 6.87-.048 6.925-.026zm24.022-4.746h3.91v4.64h6.096v3.909l-3.058-.038-3.058-.038.05 3.55.048 3.55.359.695c.196.383.358.752.358.821 0 .262 1.704 1.816 2.369 2.161.921.479 2.19.697 3.02.52.736-.157.84-.118.84.31 0 .173.06.352.132.397.073.045.133.171.133.28 0 .11.126.476.28.815.155.339.295.678.312.755.016.076.1.31.186.52.087.211.14.396.12.412-.222.17-1.191.356-2.157.414-1.445.087-3.045-.174-4.138-.674-.421-.193-.766-.334-.766-.314 0 .086-1.32-.881-1.812-1.326-.59-.535-1.952-2.284-2.184-2.804a20.221 20.221 0 0 1-.73-1.922c-.122-.387-.186-2.689-.238-8.581zm63.598-1.845c-.254-.2-.541-.275-1.06-.275h-.711v1.259c0 1.414-.018 1.395 1.1 1.136.689-.16 1.02-.576 1.02-1.28 0-.453-.069-.62-.349-.84zm-3.494-1.6h1.756c2.088.001 2.652.134 3.29.776.38.383.498.623.569 1.162.09.694.063.86-.266 1.604-.15.338-.638.81-1.22 1.181-.025.016.377.865.894 1.887.518 1.022.941 1.89.941 1.93 0 .041-.407.074-.904.074h-.904l-.699-1.358c-.985-1.916-1.2-2.24-1.45-2.192-.185.035-.228.312-.284 1.825-.065 1.748-.072 1.784-.364 1.77a48.065 48.065 0 0 0-.829-.03l-.53-.015V6.97zm3.96-1.053c-1.207-.278-2.809-.01-3.904.656-.733.445-1.83 1.63-2.122 2.29-.135.307-.298.596-.362.64-.065.046-.15.716-.189 1.489-.063 1.24-.036 1.503.23 2.237.712 1.959 2.212 3.258 4.274 3.7 1.32.283 3.103-.151 4.143-1.009 1.99-1.64 2.646-3.34 2.191-5.68-.393-2.02-2.193-3.846-4.26-4.323zM103.31.261c1.003-.292 2.933-.317 3.95-.053 1.273.332 2.328.952 3.268 1.922 1.203 1.241 1.35 1.469 1.742 2.697.988 3.092-.138 6.391-2.784 8.154-1.354.901-2.355 1.21-3.938 1.21-2.227.002-3.608-.536-5.158-2.009-.545-.516-.99-1.016-.99-1.11 0-.094-.05-.191-.11-.215-.17-.069-.792-1.465-.942-2.114-.448-1.941.12-4.604 1.256-5.883.194-.218.481-.546.638-.729.719-.835 1.822-1.508 3.068-1.87z"/></g></g></svg>